<?xml version="1.0" encoding="UTF-8" standalone="no"?>
<!DOCTYPE svg PUBLIC "-//W3C//DTD SVG 1.1//EN" "http://www.w3.org/Graphics/SVG/1.1/DTD/svg11.dtd">
<svg width="100%" height="100%" viewBox="0 0 81 62" version="1.1" xmlns="http://www.w3.org/2000/svg" xmlns:xlink="http://www.w3.org/1999/xlink" xml:space="preserve" xmlns:serif="http://www.serif.com/" style="fill-rule:evenodd;clip-rule:evenodd;stroke-linejoin:round;stroke-miterlimit:2;">
    <g transform="matrix(1,0,0,1,-9,-19)">
        <path d="M13,19L27.552,19C28.488,19 29.394,19.328 30.113,19.927L34.722,23.768C34.902,23.918 35.128,24 35.362,24L77,24C79.209,24 81,25.791 81,28L81,37C81,37.552 81.448,38 82,38L86,38C88.193,38 89.971,39.778 89.971,41.971C89.971,42.273 89.936,42.575 89.867,42.87L81.72,77.906C81.298,79.718 79.684,81 77.823,81L13,81C10.791,81 9,79.209 9,77L9,23C9,20.791 10.791,19 13,19ZM77,37L77,29C77,28.448 76.552,28 76,28L35,28C34.064,28 33.158,27.672 32.439,27.073L27.83,23.232C27.65,23.082 27.424,23 27.19,23L14,23L14,23C13.448,23 13,23.448 13,24L12.997,65.711C12.997,65.876 13.132,66.011 13.297,66.011C13.437,66.011 13.558,65.914 13.59,65.778L19.284,41.101C19.703,39.286 21.319,38 23.182,38L76,38C76.552,38 77,37.552 77,37ZM16.257,77L77.029,77C77.494,77 77.898,76.679 78.003,76.227L85.678,43.226C85.803,42.689 85.468,42.151 84.93,42.026C84.856,42.009 84.78,42 84.704,42L24.669,41.996C23.738,41.996 22.93,42.639 22.72,43.546L15.283,75.775C15.158,76.313 15.494,76.85 16.032,76.974C16.106,76.991 16.181,77 16.257,77Z" style="fill-rule:nonzero;"/>
    </g>
</svg>
